<mxfile host="65bd71144e">
    <diagram id="tWubSCHZFrJJ8RHC6Jqd" name="PÃ¡gina-1">
        <mxGraphModel dx="313" dy="254" grid="1" gridSize="10" guides="1" tooltips="1" connect="1" arrows="1" fold="1" page="1" pageScale="1" pageWidth="827" pageHeight="1169" math="0" shadow="0">
            <root>
                <mxCell id="0"/>
                <mxCell id="1" parent="0"/>
                <mxCell id="4" value="" style="edgeStyle=none;html=1;" edge="1" parent="1" source="2" target="3">
                    <mxGeometry relative="1" as="geometry"/>
                </mxCell>
                <mxCell id="2" value="INICIO" style="ellipse;whiteSpace=wrap;html=1;fillColor=#e51400;fontColor=#ffffff;strokeColor=#B20000;" vertex="1" parent="1">
                    <mxGeometry x="360" y="50" width="80" height="50" as="geometry"/>
                </mxCell>
                <mxCell id="6" value="" style="edgeStyle=none;html=1;" edge="1" parent="1" source="3" target="5">
                    <mxGeometry relative="1" as="geometry"/>
                </mxCell>
                <mxCell id="3" value="a,b,c" style="shape=parallelogram;perimeter=parallelogramPerimeter;whiteSpace=wrap;html=1;fixedSize=1;fillColor=#fa6800;fontColor=#000000;strokeColor=#C73500;" vertex="1" parent="1">
                    <mxGeometry x="365" y="140" width="75" height="30" as="geometry"/>
                </mxCell>
                <mxCell id="8" value="" style="edgeStyle=none;html=1;" edge="1" parent="1" source="5" target="7">
                    <mxGeometry relative="1" as="geometry">
                        <Array as="points">
                            <mxPoint x="500" y="230"/>
                        </Array>
                    </mxGeometry>
                </mxCell>
                <mxCell id="12" style="edgeStyle=none;html=1;exitX=0;exitY=0.5;exitDx=0;exitDy=0;entryX=0.5;entryY=0;entryDx=0;entryDy=0;" edge="1" parent="1" source="5" target="10">
                    <mxGeometry relative="1" as="geometry">
                        <Array as="points">
                            <mxPoint x="314" y="230"/>
                        </Array>
                    </mxGeometry>
                </mxCell>
                <mxCell id="5" value="a+b &amp;gt; c" style="rhombus;whiteSpace=wrap;html=1;fillColor=#f0a30a;fontColor=#000000;strokeColor=#BD7000;" vertex="1" parent="1">
                    <mxGeometry x="368.75" y="210" width="67.5" height="40" as="geometry"/>
                </mxCell>
                <mxCell id="24" style="edgeStyle=none;html=1;entryX=0.5;entryY=0;entryDx=0;entryDy=0;" edge="1" parent="1" source="7" target="20">
                    <mxGeometry relative="1" as="geometry">
                        <mxPoint x="380" y="490" as="targetPoint"/>
                        <Array as="points">
                            <mxPoint x="500" y="450"/>
                            <mxPoint x="403" y="450"/>
                        </Array>
                    </mxGeometry>
                </mxCell>
                <mxCell id="7" value="print(&quot;es un triangulo&quot;)" style="shape=document;whiteSpace=wrap;html=1;boundedLbl=1;fillColor=#e3c800;fontColor=#000000;strokeColor=#B09500;" vertex="1" parent="1">
                    <mxGeometry x="460" y="270" width="80" height="40" as="geometry"/>
                </mxCell>
                <mxCell id="9" value="" style="edgeStyle=none;html=1;" edge="1" parent="1" source="10" target="11">
                    <mxGeometry relative="1" as="geometry">
                        <Array as="points">
                            <mxPoint x="405" y="270"/>
                        </Array>
                    </mxGeometry>
                </mxCell>
                <mxCell id="16" style="edgeStyle=none;html=1;exitX=0;exitY=0.5;exitDx=0;exitDy=0;entryX=0.5;entryY=0;entryDx=0;entryDy=0;" edge="1" parent="1" source="10" target="14">
                    <mxGeometry relative="1" as="geometry">
                        <Array as="points">
                            <mxPoint x="230" y="270"/>
                        </Array>
                    </mxGeometry>
                </mxCell>
                <mxCell id="10" value="b+c &amp;gt; a" style="rhombus;whiteSpace=wrap;html=1;fillColor=#f0a30a;fontColor=#000000;strokeColor=#BD7000;" vertex="1" parent="1">
                    <mxGeometry x="280" y="250" width="67.5" height="40" as="geometry"/>
                </mxCell>
                <mxCell id="23" style="edgeStyle=none;html=1;entryX=0.5;entryY=0;entryDx=0;entryDy=0;" edge="1" parent="1" source="11" target="20">
                    <mxGeometry relative="1" as="geometry">
                        <mxPoint x="380" y="490" as="targetPoint"/>
                    </mxGeometry>
                </mxCell>
                <mxCell id="11" value="print(&quot;es un triangulo&quot;)" style="shape=document;whiteSpace=wrap;html=1;boundedLbl=1;fillColor=#e3c800;fontColor=#000000;strokeColor=#B09500;" vertex="1" parent="1">
                    <mxGeometry x="365" y="310" width="80" height="40" as="geometry"/>
                </mxCell>
                <mxCell id="13" value="" style="edgeStyle=none;html=1;" edge="1" parent="1" source="14" target="15">
                    <mxGeometry relative="1" as="geometry">
                        <Array as="points">
                            <mxPoint x="328.75" y="320"/>
                        </Array>
                    </mxGeometry>
                </mxCell>
                <mxCell id="14" value="b+c &amp;gt; a" style="rhombus;whiteSpace=wrap;html=1;" vertex="1" parent="1">
                    <mxGeometry x="197.5" y="300" width="67.5" height="40" as="geometry"/>
                </mxCell>
                <mxCell id="22" style="edgeStyle=none;html=1;entryX=0.5;entryY=0;entryDx=0;entryDy=0;" edge="1" parent="1" source="15" target="20">
                    <mxGeometry relative="1" as="geometry">
                        <mxPoint x="380" y="490" as="targetPoint"/>
                        <Array as="points">
                            <mxPoint x="329" y="450"/>
                            <mxPoint x="403" y="450"/>
                        </Array>
                    </mxGeometry>
                </mxCell>
                <mxCell id="15" value="print(&quot;es un triangulo&quot;)" style="shape=document;whiteSpace=wrap;html=1;boundedLbl=1;fillColor=#e3c800;fontColor=#000000;strokeColor=#B09500;" vertex="1" parent="1">
                    <mxGeometry x="288.75" y="360" width="80" height="40" as="geometry"/>
                </mxCell>
                <mxCell id="19" value="" style="edgeStyle=none;html=1;" edge="1" parent="1" source="17" target="18">
                    <mxGeometry relative="1" as="geometry">
                        <Array as="points">
                            <mxPoint x="156" y="320"/>
                        </Array>
                    </mxGeometry>
                </mxCell>
                <mxCell id="17" value="c+a &amp;gt; b" style="rhombus;whiteSpace=wrap;html=1;fillColor=#f0a30a;fontColor=#000000;strokeColor=#BD7000;" vertex="1" parent="1">
                    <mxGeometry x="197.5" y="300" width="67.5" height="40" as="geometry"/>
                </mxCell>
                <mxCell id="21" style="edgeStyle=none;html=1;entryX=0.5;entryY=0;entryDx=0;entryDy=0;" edge="1" parent="1" source="18" target="20">
                    <mxGeometry relative="1" as="geometry">
                        <Array as="points">
                            <mxPoint x="153" y="450"/>
                            <mxPoint x="403" y="450"/>
                        </Array>
                    </mxGeometry>
                </mxCell>
                <mxCell id="18" value="print(&quot;no se puede formar un triangulo&quot;)" style="shape=document;whiteSpace=wrap;html=1;boundedLbl=1;fillColor=#e3c800;fontColor=#000000;strokeColor=#B09500;" vertex="1" parent="1">
                    <mxGeometry x="100" y="360" width="105" height="60" as="geometry"/>
                </mxCell>
                <mxCell id="20" value="FIN" style="ellipse;whiteSpace=wrap;html=1;fillColor=#e51400;fontColor=#ffffff;strokeColor=#B20000;" vertex="1" parent="1">
                    <mxGeometry x="357.5" y="490" width="90" height="60" as="geometry"/>
                </mxCell>
                <mxCell id="25" value="&lt;font style=&quot;font-size: 13px&quot;&gt;V&lt;/font&gt;" style="text;html=1;strokeColor=none;fillColor=none;align=center;verticalAlign=middle;whiteSpace=wrap;rounded=0;" vertex="1" parent="1">
                    <mxGeometry x="447.5" y="210" width="30" height="20" as="geometry"/>
                </mxCell>
                <mxCell id="26" value="&lt;font style=&quot;font-size: 13px&quot;&gt;V&lt;/font&gt;" style="text;html=1;strokeColor=none;fillColor=none;align=center;verticalAlign=middle;whiteSpace=wrap;rounded=0;" vertex="1" parent="1">
                    <mxGeometry x="357.5" y="250" width="30" height="20" as="geometry"/>
                </mxCell>
                <mxCell id="27" value="&lt;font style=&quot;font-size: 13px&quot;&gt;V&lt;/font&gt;" style="text;html=1;strokeColor=none;fillColor=none;align=center;verticalAlign=middle;whiteSpace=wrap;rounded=0;" vertex="1" parent="1">
                    <mxGeometry x="280" y="300" width="30" height="20" as="geometry"/>
                </mxCell>
                <mxCell id="28" value="&lt;font style=&quot;font-size: 13px&quot;&gt;F&lt;/font&gt;" style="text;html=1;strokeColor=none;fillColor=none;align=center;verticalAlign=middle;whiteSpace=wrap;rounded=0;" vertex="1" parent="1">
                    <mxGeometry x="327.5" y="210" width="30" height="20" as="geometry"/>
                </mxCell>
                <mxCell id="29" value="&lt;span style=&quot;color: rgb(240, 240, 240); font-family: helvetica; font-size: 13px; font-style: normal; font-weight: 400; letter-spacing: normal; text-align: center; text-indent: 0px; text-transform: none; word-spacing: 0px; background-color: rgb(42, 42, 42); display: inline; float: none;&quot;&gt;F&lt;/span&gt;" style="text;whiteSpace=wrap;html=1;fontSize=13;" vertex="1" parent="1">
                    <mxGeometry x="258.75" y="245" width="21.25" height="25" as="geometry"/>
                </mxCell>
                <mxCell id="30" value="&lt;span style=&quot;color: rgb(240, 240, 240); font-family: helvetica; font-size: 13px; font-style: normal; font-weight: 400; letter-spacing: normal; text-align: center; text-indent: 0px; text-transform: none; word-spacing: 0px; background-color: rgb(42, 42, 42); display: inline; float: none;&quot;&gt;F&lt;/span&gt;" style="text;whiteSpace=wrap;html=1;fontSize=13;" vertex="1" parent="1">
                    <mxGeometry x="175" y="295" width="30" height="30" as="geometry"/>
                </mxCell>
            </root>
        </mxGraphModel>
    </diagram>
</mxfile>